<?xml version="1.0" encoding="UTF-8" standalone="no"?>
<svg
   xmlns:dc="http://purl.org/dc/elements/1.1/"
   xmlns:cc="http://creativecommons.org/ns#"
   xmlns:rdf="http://www.w3.org/1999/02/22-rdf-syntax-ns#"
   xmlns:svg="http://www.w3.org/2000/svg"
   xmlns="http://www.w3.org/2000/svg"
   xmlns:sodipodi="http://sodipodi.sourceforge.net/DTD/sodipodi-0.dtd"
   xmlns:inkscape="http://www.inkscape.org/namespaces/inkscape"
   viewBox="0 0 22 22"
   version="1.1"
   id="svg104"
   sodipodi:docname="topleft.svg"
   inkscape:version="1.0.2 (e86c870879, 2021-01-15)">
  <metadata
     id="metadata108">
    <rdf:RDF>
      <cc:Work
         rdf:about="">
        <dc:format>image/svg+xml</dc:format>
        <dc:type
           rdf:resource="http://purl.org/dc/dcmitype/StillImage" />
        <dc:title />
      </cc:Work>
    </rdf:RDF>
  </metadata>
  <sodipodi:namedview
     pagecolor="#ffffff"
     bordercolor="#666666"
     borderopacity="1"
     objecttolerance="10"
     gridtolerance="10"
     guidetolerance="10"
     inkscape:pageopacity="0"
     inkscape:pageshadow="2"
     inkscape:window-width="1280"
     inkscape:window-height="922"
     id="namedview106"
     showgrid="true"
     inkscape:zoom="54.125"
     inkscape:cx="3.9888764"
     inkscape:cy="2.1685917"
     inkscape:window-x="0"
     inkscape:window-y="24"
     inkscape:window-maximized="1"
     inkscape:current-layer="svg104"
     inkscape:snap-center="false"
     inkscape:document-rotation="0">
    <inkscape:grid
       type="xygrid"
       id="grid16" />
  </sodipodi:namedview>
  <defs
     id="defs3051">
    <style
       type="text/css"
       id="current-color-scheme">
      .ColorScheme-Text {
        color:#232629;
      }
      </style>
  </defs>
  <g
     id="g28"
     transform="translate(0,-4.78125)">
    <path
       id="path188"
       style="fill:currentColor;fill-opacity:1;stroke:none"
       d="m 8.6015625,18.996094 -0.00195,-2.548828 v -2.650391 h 1.7851565 c 0.0022,0.06966 0.0051,0.139335 0.002,0.208984 -0.0089,0.07139 -0.0028,0.03341 -0.01563,0.111329 -0.0089,0.07041 -0.0129,0.141904 -0.03906,0.208984 -0.0049,0.01714 -0.03021,0.108496 -0.03711,0.128906 -0.01603,0.04716 -0.04069,0.09073 -0.05469,0.138672 -0.04298,0.08933 -0.113983,0.137886 -0.189453,0.197266 -0.0014,0.0018 -0.0025,0.004 -0.0039,0.0059 H 9.5996094 v 0.232422 c -0.043576,0.01535 -0.08818,0.03391 -0.1269532,0.05664 -0.00711,0.0042 -0.012281,0.01173 -0.019531,0.01562 -0.010616,0.0057 -0.022166,0.0088 -0.033203,0.01367 -0.03522,0.01593 -0.1424835,0.02064 -0.1640625,0.04687 -0.00162,0.002 0.00349,9.96e-4 0.00586,0.002 -0.05964,0.0101 0.077191,-0.01035 -0.074219,0.0059 -0.1136332,0.01216 -0.2213658,0.0583 -0.3339844,0.07617 -0.1806396,0.02867 -0.1500088,0.20609 0.03125,0.18164 0.1131484,-0.01526 0.2202198,-0.06533 0.3339844,-0.07617 0.00945,-8.99e-4 0.017854,0.0015 0.027344,0.002 l 0.039062,-0.0059 c 0.033141,0.0048 0.051388,-0.024 0.078125,-0.0332 0.002,-7e-4 -0.00601,0.0041 -0.00391,0.0039 0.013624,-0.0014 0.027569,-0.0052 0.041016,-0.0078 0.071362,-0.01387 -0.014124,0.01 0.080078,-0.01953 0.041522,-0.01705 0.081334,-0.03232 0.1191406,-0.05274 v 1.208985 l 0.00195,2.548828 z m 1.7050785,-4.199219 c 0.03386,-0.03784 0.07252,-0.07173 0.09766,-0.117187 0.01802,-0.05358 0.04412,-0.102852 0.0625,-0.15625 0.01315,-0.0382 0.03184,-0.107445 0.04297,-0.146485 0.02943,-0.07861 0.03449,-0.16187 0.04492,-0.244141 0.0044,-0.03474 0.01122,-0.06877 0.01562,-0.103515 0.0055,-0.07757 4.35e-4,-0.154972 -0.002,-0.232422 h 0.683594 2.548828 v 1 H 11.251905 Z M 9.4101562,14.636719 c 0.014799,-7.38e-4 0.028151,-0.0019 0.042969,-0.002 0.051704,0.0026 0.1013667,-0.0011 0.1503906,-0.01563 0.01077,0.0016 0.020389,0.0047 0.03125,0.0039 0.015153,-0.0011 0.030074,-0.0066 0.044922,-0.0098 0.053137,-0.02662 0.052232,-0.03829 0.078125,-0.07813 0.040423,-0.0622 0.011605,-0.007 0.039063,-0.06055 -0.048361,0.03686 0.031199,-0.04765 0.046875,-0.07031 0.00876,-0.01267 -0.00699,-0.03361 0.00391,-0.04492 -0.00127,-0.04024 0.00135,-0.03855 -0.00781,-0.08008 -0.00136,-0.0062 -0.00302,-0.01188 -0.00586,-0.01758 -7.5e-4,-0.0015 -0.00375,-0.0022 -0.00391,-0.0039 -0.00916,-0.09989 0.011234,0.01148 -0.00977,-0.08398 -0.00374,-0.0083 -0.00657,-0.01594 -0.011719,-0.02344 -0.00192,-0.0028 0.00301,0.01292 0.00195,0.0098 -0.015878,-0.04843 -0.026918,-0.09917 -0.0625,-0.138672 -0.023448,-0.02669 -0.044945,-0.05541 -0.074219,-0.07617 -0.023962,-0.017 -0.043982,-0.01872 -0.068359,-0.03516 -0.031926,-0.01089 0.010885,0.0035 -0.046875,-0.02344 -0.045056,-0.02099 -0.093344,-0.02744 -0.1425782,-0.02344 -0.058864,-0.0013 -0.1210782,-0.01026 -0.1777344,0.0098 -0.01101,0.0023 -0.022183,0.0036 -0.033203,0.0059 -0.010492,0.0022 -0.020893,0.005 -0.03125,0.0078 -0.00461,0.0018 -0.00885,0.0047 -0.013672,0.0059 -0.011896,0.003 -0.025247,0.0048 -0.037109,0.0078 -0.00911,0.0024 -0.016521,0.0047 -0.025391,0.0078 0.021195,0.007 -0.00301,-8.94e-4 -0.046875,0.01758 -0.00757,0.0032 -0.012731,0.0091 -0.019531,0.01367 0.0078,-0.0028 0.031287,-0.01042 0.023437,-0.0078 -0.051857,0.01719 -0.032689,0.0081 -0.074219,0.03516 -0.030334,0.04382 -0.061644,0.08443 -0.058594,0.148437 -0.00363,0.07974 -0.01508,0.160712 0.00977,0.238282 0.00671,0.02185 0.010111,0.04559 0.019531,0.06641 0.024836,0.05488 0.087689,0.09927 0.1308593,0.138672 0.024626,0.01594 0.026677,0.02014 0.056641,0.02734 0.04441,0.01072 0.095415,-7.65e-4 0.1445312,-0.0078 0.017136,0.03372 0.055393,0.062 0.1269531,0.05859 z m 0.2285157,-0.02149 c -0.00273,-4.98e-4 -0.00127,-0.0014 -0.00391,-0.002 -0.028553,-0.0055 -0.02371,-0.01325 -0.042969,-0.01953 0.0027,-0.02116 0.0119,-0.06687 0.00781,-0.146484 0.00915,-0.0029 0.01792,-0.0079 0.027344,-0.0098 0.058128,-0.0115 0.070006,0.188394 0.011719,0.177734 z m -0.039063,-0.167968 c -1.63e-4,-0.0032 2.072e-4,-0.0026 0,-0.0059 0.00104,-4.62e-4 0.00296,-0.0015 0.00391,-0.002 -0.00153,0.0025 -0.00235,0.0053 -0.00391,0.0078 z m -0.00977,0.146489 c -0.1627774,-0.05422 -0.047058,-0.125677 0.00781,-0.150391 -0.00939,0.0019 -0.009,0.01598 -0.011719,0.02539 -0.00905,0.03137 -0.00261,0.07865 0.00391,0.125 z m -0.037109,-0.140625 c -0.028103,0.0079 -0.060204,-2.06e-4 -0.089844,-0.002 -0.018116,-0.03815 -0.063145,-0.06882 -0.140625,-0.05859 -0.045961,0.0061 -0.092144,0.01008 -0.1386718,0.0098 -0.019847,-0.01959 -0.073389,-0.05992 -0.076172,-0.08203 -3.2e-4,-0.0026 0.00249,-0.0038 0.00391,-0.0059 -0.020565,-0.06169 -0.00697,-0.127836 -0.00391,-0.191406 -9.957e-4,0.0058 -2.312e-4,-0.0059 0,-0.01172 0.00112,-0.0028 9.357e-4,-0.0029 0.00195,-0.0059 0.00743,-0.0042 0.014182,-0.0092 0.021484,-0.01367 -0.00216,3.64e-4 0.00439,-0.0011 0.00586,-0.002 0.011671,-0.0031 0.021784,-0.0076 0.033203,-0.01172 0.043681,-0.01105 0.089405,-0.02029 0.1328125,-0.03516 0.00368,-0.0015 0.00777,-0.0039 0.011719,-0.0039 0.00164,3e-6 -0.00348,0.0033 -0.00195,0.0039 0.012898,0.0049 0.081124,0.0034 0.099609,0.0039 0.020384,0.0025 0.040192,-0.0026 0.060547,0 0.00171,3e-4 5.564e-4,0.0049 0.00195,0.0059 0.015233,0.01105 0.046975,0.0228 0.0625,0.0293 0.018748,0.01378 -0.00422,-0.003 0.037109,0.01758 0.00141,7e-4 0.00556,0.0074 0.00586,0.0078 0.00952,0.01215 0.019116,0.02356 0.029297,0.03516 0.00346,0.0061 0.00916,0.01098 0.011719,0.01758 9.999e-4,0.0025 -7.629e-4,0.0072 0,0.0098 0.00293,0.01016 0.0058,0.0195 0.00977,0.0293 0.029111,0.07178 0.010941,0.02149 0.019531,0.04687 -0.00138,-0.0021 -0.00201,-0.0076 -0.00391,-0.0059 -0.01219,0.01069 0.013088,0.07626 0.017578,0.0957 7.517e-4,0.0033 2.066e-4,0.0084 0,0.01367 -0.011743,0.01321 -0.020019,0.02246 -0.035156,0.04883 -0.00771,0.01296 -0.015738,0.02485 -0.023437,0.03711 2.315e-4,-1.11e-4 -0.00558,0.0019 -0.00586,0.002 -0.00222,6.72e-4 4.773e-4,9.8e-5 -0.046875,0.01563 z" />
    <path
       style="fill:currentColor;fill-opacity:1;stroke:none"
       d="m 6,7.78125 v 1 H 4 v 2 H 3 v -2 -1 h 1 z"
       id="path186" />
    <path
       id="path12"
       style="stroke-width:0.0311615"
       d="M 8.6132812,18.992187 V 16.40625 13.818359 h 1.7714848 c 0.0021,0.0625 0.0048,0.125011 0.002,0.1875 -0.0089,0.07139 -0.0028,0.03341 -0.01563,0.111329 -0.0089,0.07041 -0.0129,0.141904 -0.03906,0.208984 -0.0049,0.01714 -0.03021,0.108496 -0.03711,0.128906 -0.01603,0.04716 -0.04069,0.09073 -0.05469,0.138672 -0.04168,0.08662 -0.110693,0.134415 -0.183593,0.191406 H 9.578125 v 0.253906 c -0.036108,0.01444 -0.073278,0.02801 -0.1054688,0.04688 -0.00711,0.0042 -0.012281,0.01173 -0.019531,0.01562 -0.010616,0.0057 -0.022166,0.0088 -0.033203,0.01367 -0.03522,0.01593 -0.1424835,0.02064 -0.1640625,0.04687 -0.00162,0.002 0.00349,9.96e-4 0.00586,0.002 -0.05964,0.0101 0.077191,-0.01035 -0.074219,0.0059 -0.1136332,0.01216 -0.2213658,0.0583 -0.3339844,0.07617 -0.1806396,0.02867 -0.1500088,0.20609 0.03125,0.18164 0.1131484,-0.01526 0.2202198,-0.06533 0.3339844,-0.07617 0.00945,-8.99e-4 0.017854,0.0015 0.027344,0.002 l 0.039062,-0.0059 c 0.033141,0.0048 0.051388,-0.024 0.078125,-0.0332 0.002,-7e-4 -0.00601,0.0041 -0.00391,0.0039 0.013624,-0.0014 0.027569,-0.0052 0.041016,-0.0078 0.071362,-0.01387 -0.014124,0.01 0.080078,-0.01953 0.034001,-0.01396 0.066845,-0.0257 0.097656,-0.04297 v 1.64053 2.103515 H 9.0957031 Z m 1.7031248,-4.207031 c 0.02962,-0.03474 0.06527,-0.06456 0.08789,-0.105468 0.01802,-0.05358 0.04412,-0.102852 0.0625,-0.15625 0.01315,-0.0382 0.03184,-0.107445 0.04297,-0.146485 0.02943,-0.07861 0.03449,-0.16187 0.04492,-0.244141 0.0044,-0.03474 0.01122,-0.06877 0.01562,-0.103515 0.005,-0.0704 3.07e-4,-0.14066 -0.002,-0.210938 h 0.63086 2.585937 v 0.484375 0.482422 H 11.681588 Z M 9.4101562,14.636719 c 0.014799,-7.38e-4 0.028151,-0.0019 0.042969,-0.002 0.051704,0.0026 0.1013667,-0.0011 0.1503906,-0.01563 0.01077,0.0016 0.020389,0.0047 0.03125,0.0039 0.015153,-0.0011 0.030074,-0.0066 0.044922,-0.0098 0.053137,-0.02662 0.052232,-0.03829 0.078125,-0.07813 0.040423,-0.0622 0.011605,-0.007 0.039063,-0.06055 -0.048361,0.03686 0.031199,-0.04765 0.046875,-0.07031 0.00876,-0.01267 -0.00699,-0.03361 0.00391,-0.04492 -0.00127,-0.04024 0.00135,-0.03855 -0.00781,-0.08008 -0.00136,-0.0062 -0.00302,-0.01188 -0.00586,-0.01758 -7.5e-4,-0.0015 -0.00375,-0.0022 -0.00391,-0.0039 -0.00916,-0.09989 0.011234,0.01148 -0.00977,-0.08398 -0.00374,-0.0083 -0.00657,-0.01594 -0.011719,-0.02344 -0.00192,-0.0028 0.00301,0.01292 0.00195,0.0098 -0.015878,-0.04843 -0.026918,-0.09917 -0.0625,-0.138672 -0.023448,-0.02669 -0.044945,-0.05541 -0.074219,-0.07617 -0.023962,-0.017 -0.043982,-0.01872 -0.068359,-0.03516 -0.031926,-0.01089 0.010885,0.0035 -0.046875,-0.02344 -0.045056,-0.02099 -0.093344,-0.02744 -0.1425782,-0.02344 -0.058864,-0.0013 -0.1210782,-0.01026 -0.1777344,0.0098 -0.01101,0.0023 -0.022183,0.0036 -0.033203,0.0059 -0.010492,0.0022 -0.020893,0.005 -0.03125,0.0078 -0.00461,0.0018 -0.00885,0.0047 -0.013672,0.0059 -0.011896,0.003 -0.025247,0.0048 -0.037109,0.0078 -0.00911,0.0024 -0.016521,0.0047 -0.025391,0.0078 0.021195,0.007 -0.00301,-8.94e-4 -0.046875,0.01758 -0.00757,0.0032 -0.012731,0.0091 -0.019531,0.01367 0.0078,-0.0028 0.031287,-0.01042 0.023437,-0.0078 -0.051857,0.01719 -0.032689,0.0081 -0.074219,0.03516 -0.030334,0.04382 -0.061644,0.08443 -0.058594,0.148437 -0.00363,0.07974 -0.01508,0.160712 0.00977,0.238282 0.00671,0.02185 0.010111,0.04559 0.019531,0.06641 0.024836,0.05488 0.087689,0.09927 0.1308593,0.138672 0.024626,0.01594 0.026677,0.02014 0.056641,0.02734 0.04441,0.01072 0.095415,-7.65e-4 0.1445312,-0.0078 0.017136,0.03372 0.055393,0.062 0.1269531,0.05859 z m 0.2285157,-0.02149 c -0.00273,-4.98e-4 -0.00127,-0.0014 -0.00391,-0.002 -0.028553,-0.0055 -0.02371,-0.01325 -0.042969,-0.01953 0.0027,-0.02116 0.0119,-0.06687 0.00781,-0.146484 0.00915,-0.0029 0.01792,-0.0079 0.027344,-0.0098 0.058128,-0.0115 0.070006,0.188394 0.011719,0.177734 z m -0.039063,-0.167968 c -1.63e-4,-0.0032 2.072e-4,-0.0026 0,-0.0059 0.00104,-4.62e-4 0.00296,-0.0015 0.00391,-0.002 -0.00153,0.0025 -0.00235,0.0053 -0.00391,0.0078 z m -0.00977,0.146489 c -0.1627774,-0.05422 -0.047058,-0.125677 0.00781,-0.150391 -0.00939,0.0019 -0.009,0.01598 -0.011719,0.02539 -0.00905,0.03137 -0.00261,0.07865 0.00391,0.125 z m -0.037109,-0.140625 c -0.028103,0.0079 -0.060204,-2.06e-4 -0.089844,-0.002 -0.018116,-0.03815 -0.063145,-0.06882 -0.140625,-0.05859 -0.045961,0.0061 -0.092144,0.01008 -0.1386718,0.0098 -0.019847,-0.01959 -0.073389,-0.05992 -0.076172,-0.08203 -3.2e-4,-0.0026 0.00249,-0.0038 0.00391,-0.0059 -0.020565,-0.06169 -0.00697,-0.127836 -0.00391,-0.191406 -9.957e-4,0.0058 -2.312e-4,-0.0059 0,-0.01172 0.00112,-0.0028 9.357e-4,-0.0029 0.00195,-0.0059 0.00743,-0.0042 0.014182,-0.0092 0.021484,-0.01367 -0.00216,3.64e-4 0.00439,-0.0011 0.00586,-0.002 0.011671,-0.0031 0.021784,-0.0076 0.033203,-0.01172 0.043681,-0.01105 0.089405,-0.02029 0.1328125,-0.03516 0.00368,-0.0015 0.00777,-0.0039 0.011719,-0.0039 0.00164,3e-6 -0.00348,0.0033 -0.00195,0.0039 0.012898,0.0049 0.081124,0.0034 0.099609,0.0039 0.020384,0.0025 0.040192,-0.0026 0.060547,0 0.00171,3e-4 5.564e-4,0.0049 0.00195,0.0059 0.015233,0.01105 0.046975,0.0228 0.0625,0.0293 0.018748,0.01378 -0.00422,-0.003 0.037109,0.01758 0.00141,7e-4 0.00556,0.0074 0.00586,0.0078 0.00952,0.01215 0.019116,0.02356 0.029297,0.03516 0.00346,0.0061 0.00916,0.01098 0.011719,0.01758 9.999e-4,0.0025 -7.629e-4,0.0072 0,0.0098 0.00293,0.01016 0.0058,0.0195 0.00977,0.0293 0.029111,0.07178 0.010941,0.02149 0.019531,0.04687 -0.00138,-0.0021 -0.00201,-0.0076 -0.00391,-0.0059 -0.01219,0.01069 0.013088,0.07626 0.017578,0.0957 7.517e-4,0.0033 2.066e-4,0.0084 0,0.01367 -0.011743,0.01321 -0.020019,0.02246 -0.035156,0.04883 -0.00771,0.01296 -0.015738,0.02485 -0.023437,0.03711 2.315e-4,-1.11e-4 -0.00558,0.0019 -0.00586,0.002 -0.00222,6.72e-4 4.773e-4,9.8e-5 -0.046875,0.01563 z" />
    <path
       id="path14"
       style="stroke-width:0.0311615"
       d="M 8.6132812,18.992187 V 16.40625 13.818359 h 1.7714848 c 0.0021,0.0625 0.0048,0.125011 0.002,0.1875 -0.0089,0.07139 -0.0028,0.03341 -0.01563,0.111329 -0.0089,0.07041 -0.0129,0.141904 -0.03906,0.208984 -0.0049,0.01714 -0.03021,0.108496 -0.03711,0.128906 -0.01603,0.04716 -0.04069,0.09073 -0.05469,0.138672 -0.04168,0.08662 -0.110693,0.134415 -0.183593,0.191406 H 9.578125 v 0.253906 c -0.036108,0.01444 -0.073278,0.02801 -0.1054688,0.04688 -0.00711,0.0042 -0.012281,0.01173 -0.019531,0.01562 -0.010616,0.0057 -0.022166,0.0088 -0.033203,0.01367 -0.03522,0.01593 -0.1424835,0.02064 -0.1640625,0.04687 -0.00162,0.002 0.00349,9.96e-4 0.00586,0.002 -0.05964,0.0101 0.077191,-0.01035 -0.074219,0.0059 -0.1136332,0.01216 -0.2213658,0.0583 -0.3339844,0.07617 -0.1806396,0.02867 -0.1500088,0.20609 0.03125,0.18164 0.1131484,-0.01526 0.2202198,-0.06533 0.3339844,-0.07617 0.00945,-8.99e-4 0.017854,0.0015 0.027344,0.002 l 0.039062,-0.0059 c 0.033141,0.0048 0.051388,-0.024 0.078125,-0.0332 0.002,-7e-4 -0.00601,0.0041 -0.00391,0.0039 0.013624,-0.0014 0.027569,-0.0052 0.041016,-0.0078 0.071362,-0.01387 -0.014124,0.01 0.080078,-0.01953 0.034001,-0.01396 0.066845,-0.0257 0.097656,-0.04297 v 1.64053 2.103515 H 9.0957031 Z m 1.7031248,-4.207031 c 0.02962,-0.03474 0.06527,-0.06456 0.08789,-0.105468 0.01802,-0.05358 0.04412,-0.102852 0.0625,-0.15625 0.01315,-0.0382 0.03184,-0.107445 0.04297,-0.146485 0.02943,-0.07861 0.03449,-0.16187 0.04492,-0.244141 0.0044,-0.03474 0.01122,-0.06877 0.01562,-0.103515 0.005,-0.0704 3.07e-4,-0.14066 -0.002,-0.210938 h 0.63086 2.585937 v 0.484375 0.482422 H 11.681588 Z M 9.4101562,14.636719 c 0.014799,-7.38e-4 0.028151,-0.0019 0.042969,-0.002 0.051704,0.0026 0.1013667,-0.0011 0.1503906,-0.01563 0.01077,0.0016 0.020389,0.0047 0.03125,0.0039 0.015153,-0.0011 0.030074,-0.0066 0.044922,-0.0098 0.053137,-0.02662 0.052232,-0.03829 0.078125,-0.07813 0.040423,-0.0622 0.011605,-0.007 0.039063,-0.06055 -0.048361,0.03686 0.031199,-0.04765 0.046875,-0.07031 0.00876,-0.01267 -0.00699,-0.03361 0.00391,-0.04492 -0.00127,-0.04024 0.00135,-0.03855 -0.00781,-0.08008 -0.00136,-0.0062 -0.00302,-0.01188 -0.00586,-0.01758 -7.5e-4,-0.0015 -0.00375,-0.0022 -0.00391,-0.0039 -0.00916,-0.09989 0.011234,0.01148 -0.00977,-0.08398 -0.00374,-0.0083 -0.00657,-0.01594 -0.011719,-0.02344 -0.00192,-0.0028 0.00301,0.01292 0.00195,0.0098 -0.015878,-0.04843 -0.026918,-0.09917 -0.0625,-0.138672 -0.023448,-0.02669 -0.044945,-0.05541 -0.074219,-0.07617 -0.023962,-0.017 -0.043982,-0.01872 -0.068359,-0.03516 -0.031926,-0.01089 0.010885,0.0035 -0.046875,-0.02344 -0.045056,-0.02099 -0.093344,-0.02744 -0.1425782,-0.02344 -0.058864,-0.0013 -0.1210782,-0.01026 -0.1777344,0.0098 -0.01101,0.0023 -0.022183,0.0036 -0.033203,0.0059 -0.010492,0.0022 -0.020893,0.005 -0.03125,0.0078 -0.00461,0.0018 -0.00885,0.0047 -0.013672,0.0059 -0.011896,0.003 -0.025247,0.0048 -0.037109,0.0078 -0.00911,0.0024 -0.016521,0.0047 -0.025391,0.0078 0.021195,0.007 -0.00301,-8.94e-4 -0.046875,0.01758 -0.00757,0.0032 -0.012731,0.0091 -0.019531,0.01367 0.0078,-0.0028 0.031287,-0.01042 0.023437,-0.0078 -0.051857,0.01719 -0.032689,0.0081 -0.074219,0.03516 -0.030334,0.04382 -0.061644,0.08443 -0.058594,0.148437 -0.00363,0.07974 -0.01508,0.160712 0.00977,0.238282 0.00671,0.02185 0.010111,0.04559 0.019531,0.06641 0.024836,0.05488 0.087689,0.09927 0.1308593,0.138672 0.024626,0.01594 0.026677,0.02014 0.056641,0.02734 0.04441,0.01072 0.095415,-7.65e-4 0.1445312,-0.0078 0.017136,0.03372 0.055393,0.062 0.1269531,0.05859 z m 0.2285157,-0.02149 c -0.00273,-4.98e-4 -0.00127,-0.0014 -0.00391,-0.002 -0.028553,-0.0055 -0.02371,-0.01325 -0.042969,-0.01953 0.0027,-0.02116 0.0119,-0.06687 0.00781,-0.146484 0.00915,-0.0029 0.01792,-0.0079 0.027344,-0.0098 0.058128,-0.0115 0.070006,0.188394 0.011719,0.177734 z m -0.039063,-0.167968 c -1.63e-4,-0.0032 2.072e-4,-0.0026 0,-0.0059 0.00104,-4.62e-4 0.00296,-0.0015 0.00391,-0.002 -0.00153,0.0025 -0.00235,0.0053 -0.00391,0.0078 z m -0.00977,0.146489 c -0.1627774,-0.05422 -0.047058,-0.125677 0.00781,-0.150391 -0.00939,0.0019 -0.009,0.01598 -0.011719,0.02539 -0.00905,0.03137 -0.00261,0.07865 0.00391,0.125 z m -0.037109,-0.140625 c -0.028103,0.0079 -0.060204,-2.06e-4 -0.089844,-0.002 -0.018116,-0.03815 -0.063145,-0.06882 -0.140625,-0.05859 -0.045961,0.0061 -0.092144,0.01008 -0.1386718,0.0098 -0.019847,-0.01959 -0.073389,-0.05992 -0.076172,-0.08203 -3.2e-4,-0.0026 0.00249,-0.0038 0.00391,-0.0059 -0.020565,-0.06169 -0.00697,-0.127836 -0.00391,-0.191406 -9.957e-4,0.0058 -2.312e-4,-0.0059 0,-0.01172 0.00112,-0.0028 9.357e-4,-0.0029 0.00195,-0.0059 0.00743,-0.0042 0.014182,-0.0092 0.021484,-0.01367 -0.00216,3.64e-4 0.00439,-0.0011 0.00586,-0.002 0.011671,-0.0031 0.021784,-0.0076 0.033203,-0.01172 0.043681,-0.01105 0.089405,-0.02029 0.1328125,-0.03516 0.00368,-0.0015 0.00777,-0.0039 0.011719,-0.0039 0.00164,3e-6 -0.00348,0.0033 -0.00195,0.0039 0.012898,0.0049 0.081124,0.0034 0.099609,0.0039 0.020384,0.0025 0.040192,-0.0026 0.060547,0 0.00171,3e-4 5.564e-4,0.0049 0.00195,0.0059 0.015233,0.01105 0.046975,0.0228 0.0625,0.0293 0.018748,0.01378 -0.00422,-0.003 0.037109,0.01758 0.00141,7e-4 0.00556,0.0074 0.00586,0.0078 0.00952,0.01215 0.019116,0.02356 0.029297,0.03516 0.00346,0.0061 0.00916,0.01098 0.011719,0.01758 9.999e-4,0.0025 -7.629e-4,0.0072 0,0.0098 0.00293,0.01016 0.0058,0.0195 0.00977,0.0293 0.029111,0.07178 0.010941,0.02149 0.019531,0.04687 -0.00138,-0.0021 -0.00201,-0.0076 -0.00391,-0.0059 -0.01219,0.01069 0.013088,0.07626 0.017578,0.0957 7.517e-4,0.0033 2.066e-4,0.0084 0,0.01367 -0.011743,0.01321 -0.020019,0.02246 -0.035156,0.04883 -0.00771,0.01296 -0.015738,0.02485 -0.023437,0.03711 2.315e-4,-1.11e-4 -0.00558,0.0019 -0.00586,0.002 -0.00222,6.72e-4 4.773e-4,9.8e-5 -0.046875,0.01563 z" />
    <path
       d="m 3.016525,9.277786 v 1.487298 H 3.506133 3.99574 V 9.767393 8.769703 h 0.997691 0.99769 V 8.280095 7.790488 H 4.503823 3.016525 Z"
       id="path18"
       style="fill:#ff0000;stroke-width:0.0184758" />
    <path
       id="path20"
       style="fill:#ff0000;stroke-width:0.0184758"
       d="m 8.6152344,18.986328 v -2.585937 -2.585938 h 1.7695316 c 0.0021,0.0638 0.0049,0.127615 0.002,0.191406 -0.0089,0.07139 -0.0028,0.03341 -0.01563,0.111329 -0.0089,0.07041 -0.0129,0.141904 -0.03906,0.208984 -0.0049,0.01714 -0.03021,0.108496 -0.03711,0.128906 -0.01603,0.04716 -0.04069,0.09073 -0.05469,0.138672 -0.04298,0.08933 -0.113983,0.137886 -0.189453,0.197266 -5.37e-4,7.01e-4 -0.0014,0.0012 -0.002,0.002 H 9.59375 v 0.238234 c -0.041656,0.01521 -0.084035,0.03296 -0.1210938,0.05469 -0.00711,0.0042 -0.012281,0.01173 -0.019531,0.01562 -0.010616,0.0057 -0.022166,0.0088 -0.033203,0.01367 -0.03522,0.01593 -0.1424835,0.02064 -0.1640625,0.04687 -0.00162,0.002 0.00349,9.96e-4 0.00586,0.002 -0.05964,0.0101 0.077191,-0.01035 -0.074219,0.0059 -0.1136332,0.01216 -0.2213658,0.0583 -0.3339844,0.07617 -0.1806396,0.02867 -0.1500088,0.20609 0.03125,0.18164 0.1131484,-0.01526 0.2202198,-0.06533 0.3339844,-0.07617 0.00945,-8.99e-4 0.017854,0.0015 0.027344,0.002 l 0.039062,-0.0059 c 0.033141,0.0048 0.051388,-0.024 0.078125,-0.0332 0.002,-7e-4 -0.00601,0.0041 -0.00391,0.0039 0.013624,-0.0014 0.027569,-0.0052 0.041016,-0.0078 0.071362,-0.01387 -0.014124,0.01 0.080078,-0.01953 0.039312,-0.01614 0.077574,-0.02926 0.1132812,-0.04883 v 1.648345 2.095703 H 9.1035156 Z m 1.6953126,-4.193359 c 0.03231,-0.03674 0.06952,-0.06946 0.09375,-0.113281 0.01802,-0.05358 0.04412,-0.102852 0.0625,-0.15625 0.01315,-0.0382 0.03184,-0.107445 0.04297,-0.146485 0.02943,-0.07861 0.03449,-0.16187 0.04492,-0.244141 0.0044,-0.03474 0.01122,-0.06877 0.01562,-0.103515 0.0051,-0.0717 3.43e-4,-0.143263 -0.002,-0.214844 h 0.632813 2.585937 v 0.488281 0.490235 h -2.095703 z m -0.9003908,-0.15625 c 0.014799,-7.38e-4 0.028151,-0.0019 0.042969,-0.002 0.051704,0.0026 0.1013667,-0.0011 0.1503906,-0.01563 0.01077,0.0016 0.020389,0.0047 0.03125,0.0039 0.015153,-0.0011 0.030074,-0.0066 0.044922,-0.0098 0.053137,-0.02662 0.052232,-0.03829 0.078125,-0.07813 0.040423,-0.0622 0.011605,-0.007 0.039063,-0.06055 -0.048361,0.03686 0.031199,-0.04765 0.046875,-0.07031 0.00876,-0.01267 -0.00699,-0.03361 0.00391,-0.04492 -0.00127,-0.04024 0.00135,-0.03855 -0.00781,-0.08008 -0.00136,-0.0062 -0.00302,-0.01188 -0.00586,-0.01758 -7.5e-4,-0.0015 -0.00375,-0.0022 -0.00391,-0.0039 -0.00916,-0.09989 0.011234,0.01148 -0.00977,-0.08398 -0.00374,-0.0083 -0.00657,-0.01594 -0.011719,-0.02344 -0.00192,-0.0028 0.00301,0.01292 0.00195,0.0098 -0.015878,-0.04843 -0.026918,-0.09917 -0.0625,-0.138672 -0.023448,-0.02669 -0.044945,-0.05541 -0.074219,-0.07617 -0.023962,-0.017 -0.043982,-0.01872 -0.068359,-0.03516 -0.031926,-0.01089 0.010885,0.0035 -0.046875,-0.02344 -0.045056,-0.02099 -0.093344,-0.02744 -0.1425782,-0.02344 -0.058864,-0.0013 -0.1210782,-0.01026 -0.1777344,0.0098 -0.01101,0.0023 -0.022183,0.0036 -0.033203,0.0059 -0.010492,0.0022 -0.020893,0.005 -0.03125,0.0078 -0.00461,0.0018 -0.00885,0.0047 -0.013672,0.0059 -0.011896,0.003 -0.025247,0.0048 -0.037109,0.0078 -0.00911,0.0024 -0.016521,0.0047 -0.025391,0.0078 0.021195,0.007 -0.00301,-8.94e-4 -0.046875,0.01758 -0.00757,0.0032 -0.012731,0.0091 -0.019531,0.01367 0.0078,-0.0028 0.031287,-0.01042 0.023437,-0.0078 -0.051857,0.01719 -0.032689,0.0081 -0.074219,0.03516 -0.030334,0.04382 -0.061644,0.08443 -0.058594,0.148437 -0.00363,0.07974 -0.01508,0.160712 0.00977,0.238282 0.00671,0.02185 0.010111,0.04559 0.019531,0.06641 0.024836,0.05488 0.087689,0.09927 0.1308593,0.138672 0.024626,0.01594 0.026677,0.02014 0.056641,0.02734 0.04441,0.01072 0.095415,-7.65e-4 0.1445312,-0.0078 0.017136,0.03372 0.055393,0.062 0.1269531,0.05859 z m 0.2285157,-0.02149 c -0.00273,-4.98e-4 -0.00127,-0.0014 -0.00391,-0.002 -0.028553,-0.0055 -0.02371,-0.01325 -0.042969,-0.01953 0.0027,-0.02116 0.0119,-0.06687 0.00781,-0.146484 0.00915,-0.0029 0.01792,-0.0079 0.027344,-0.0098 0.058128,-0.0115 0.070006,0.188394 0.011719,0.177734 z m -0.039063,-0.167968 c -1.63e-4,-0.0032 2.072e-4,-0.0026 0,-0.0059 0.00104,-4.62e-4 0.00296,-0.0015 0.00391,-0.002 -0.00153,0.0025 -0.00235,0.0053 -0.00391,0.0078 z m -0.00977,0.146489 c -0.1627774,-0.05422 -0.047058,-0.125677 0.00781,-0.150391 -0.00939,0.0019 -0.009,0.01598 -0.011719,0.02539 -0.00905,0.03137 -0.00261,0.07865 0.00391,0.125 z m -0.037109,-0.140625 c -0.028103,0.0079 -0.060204,-2.06e-4 -0.089844,-0.002 -0.018116,-0.03815 -0.063145,-0.06882 -0.140625,-0.05859 -0.045961,0.0061 -0.092144,0.01008 -0.1386718,0.0098 -0.019847,-0.01959 -0.073389,-0.05992 -0.076172,-0.08203 -3.2e-4,-0.0026 0.00249,-0.0038 0.00391,-0.0059 -0.020565,-0.06169 -0.00697,-0.127836 -0.00391,-0.191406 -9.957e-4,0.0058 -2.312e-4,-0.0059 0,-0.01172 0.00112,-0.0028 9.357e-4,-0.0029 0.00195,-0.0059 0.00743,-0.0042 0.014182,-0.0092 0.021484,-0.01367 -0.00216,3.64e-4 0.00439,-0.0011 0.00586,-0.002 0.011671,-0.0031 0.021784,-0.0076 0.033203,-0.01172 0.043681,-0.01105 0.089405,-0.02029 0.1328125,-0.03516 0.00368,-0.0015 0.00777,-0.0039 0.011719,-0.0039 0.00164,3e-6 -0.00348,0.0033 -0.00195,0.0039 0.012898,0.0049 0.081124,0.0034 0.099609,0.0039 0.020384,0.0025 0.040192,-0.0026 0.060547,0 0.00171,3e-4 5.564e-4,0.0049 0.00195,0.0059 0.015233,0.01105 0.046975,0.0228 0.0625,0.0293 0.018748,0.01378 -0.00422,-0.003 0.037109,0.01758 0.00141,7e-4 0.00556,0.0074 0.00586,0.0078 0.00952,0.01215 0.019116,0.02356 0.029297,0.03516 0.00346,0.0061 0.00916,0.01098 0.011719,0.01758 9.999e-4,0.0025 -7.629e-4,0.0072 0,0.0098 0.00293,0.01016 0.0058,0.0195 0.00977,0.0293 0.029111,0.07178 0.010941,0.02149 0.019531,0.04687 -0.00138,-0.0021 -0.00201,-0.0076 -0.00391,-0.0059 -0.01219,0.01069 0.013088,0.07626 0.017578,0.0957 7.517e-4,0.0033 2.066e-4,0.0084 0,0.01367 -0.011743,0.01321 -0.020019,0.02246 -0.035156,0.04883 -0.00771,0.01296 -0.015738,0.02485 -0.023437,0.03711 2.315e-4,-1.11e-4 -0.00558,0.0019 -0.00586,0.002 -0.00222,6.72e-4 4.773e-4,9.8e-5 -0.046875,0.01563 z" />
    <path
       id="path24"
       style="fill:#ff0000;stroke-width:0.0184758"
       d="m 8.6152344,18.986328 v -2.585937 -2.585938 h 1.7695316 c 0.0021,0.0638 0.0049,0.127615 0.002,0.191406 -0.0089,0.07139 -0.0028,0.03341 -0.01563,0.111329 -0.0089,0.07041 -0.0129,0.141904 -0.03906,0.208984 -0.0049,0.01714 -0.03021,0.108496 -0.03711,0.128906 -0.01603,0.04716 -0.04069,0.09073 -0.05469,0.138672 -0.04298,0.08933 -0.113983,0.137886 -0.189453,0.197266 -5.37e-4,7.01e-4 -0.0014,0.0012 -0.002,0.002 H 9.59375 v 0.238234 c -0.041656,0.01521 -0.084035,0.03296 -0.1210938,0.05469 -0.00711,0.0042 -0.012281,0.01173 -0.019531,0.01562 -0.010616,0.0057 -0.022166,0.0088 -0.033203,0.01367 -0.03522,0.01593 -0.1424835,0.02064 -0.1640625,0.04687 -0.00162,0.002 0.00349,9.96e-4 0.00586,0.002 -0.05964,0.0101 0.077191,-0.01035 -0.074219,0.0059 -0.1136332,0.01216 -0.2213658,0.0583 -0.3339844,0.07617 -0.1806396,0.02867 -0.1500088,0.20609 0.03125,0.18164 0.1131484,-0.01526 0.2202198,-0.06533 0.3339844,-0.07617 0.00945,-8.99e-4 0.017854,0.0015 0.027344,0.002 l 0.039062,-0.0059 c 0.033141,0.0048 0.051388,-0.024 0.078125,-0.0332 0.002,-7e-4 -0.00601,0.0041 -0.00391,0.0039 0.013624,-0.0014 0.027569,-0.0052 0.041016,-0.0078 0.071362,-0.01387 -0.014124,0.01 0.080078,-0.01953 0.039312,-0.01614 0.077574,-0.02926 0.1132812,-0.04883 v 1.648345 2.095703 H 9.1035156 Z m 1.6953126,-4.193359 c 0.03231,-0.03674 0.06952,-0.06946 0.09375,-0.113281 0.01802,-0.05358 0.04412,-0.102852 0.0625,-0.15625 0.01315,-0.0382 0.03184,-0.107445 0.04297,-0.146485 0.02943,-0.07861 0.03449,-0.16187 0.04492,-0.244141 0.0044,-0.03474 0.01122,-0.06877 0.01562,-0.103515 0.0051,-0.0717 3.43e-4,-0.143263 -0.002,-0.214844 h 0.632813 2.585937 v 0.488281 0.490235 h -2.095703 z m -0.9003908,-0.15625 c 0.014799,-7.38e-4 0.028151,-0.0019 0.042969,-0.002 0.051704,0.0026 0.1013667,-0.0011 0.1503906,-0.01563 0.01077,0.0016 0.020389,0.0047 0.03125,0.0039 0.015153,-0.0011 0.030074,-0.0066 0.044922,-0.0098 0.053137,-0.02662 0.052232,-0.03829 0.078125,-0.07813 0.040423,-0.0622 0.011605,-0.007 0.039063,-0.06055 -0.048361,0.03686 0.031199,-0.04765 0.046875,-0.07031 0.00876,-0.01267 -0.00699,-0.03361 0.00391,-0.04492 -0.00127,-0.04024 0.00135,-0.03855 -0.00781,-0.08008 -0.00136,-0.0062 -0.00302,-0.01188 -0.00586,-0.01758 -7.5e-4,-0.0015 -0.00375,-0.0022 -0.00391,-0.0039 -0.00916,-0.09989 0.011234,0.01148 -0.00977,-0.08398 -0.00374,-0.0083 -0.00657,-0.01594 -0.011719,-0.02344 -0.00192,-0.0028 0.00301,0.01292 0.00195,0.0098 -0.015878,-0.04843 -0.026918,-0.09917 -0.0625,-0.138672 -0.023448,-0.02669 -0.044945,-0.05541 -0.074219,-0.07617 -0.023962,-0.017 -0.043982,-0.01872 -0.068359,-0.03516 -0.031926,-0.01089 0.010885,0.0035 -0.046875,-0.02344 -0.045056,-0.02099 -0.093344,-0.02744 -0.1425782,-0.02344 -0.058864,-0.0013 -0.1210782,-0.01026 -0.1777344,0.0098 -0.01101,0.0023 -0.022183,0.0036 -0.033203,0.0059 -0.010492,0.0022 -0.020893,0.005 -0.03125,0.0078 -0.00461,0.0018 -0.00885,0.0047 -0.013672,0.0059 -0.011896,0.003 -0.025247,0.0048 -0.037109,0.0078 -0.00911,0.0024 -0.016521,0.0047 -0.025391,0.0078 0.021195,0.007 -0.00301,-8.94e-4 -0.046875,0.01758 -0.00757,0.0032 -0.012731,0.0091 -0.019531,0.01367 0.0078,-0.0028 0.031287,-0.01042 0.023437,-0.0078 -0.051857,0.01719 -0.032689,0.0081 -0.074219,0.03516 -0.030334,0.04382 -0.061644,0.08443 -0.058594,0.148437 -0.00363,0.07974 -0.01508,0.160712 0.00977,0.238282 0.00671,0.02185 0.010111,0.04559 0.019531,0.06641 0.024836,0.05488 0.087689,0.09927 0.1308593,0.138672 0.024626,0.01594 0.026677,0.02014 0.056641,0.02734 0.04441,0.01072 0.095415,-7.65e-4 0.1445312,-0.0078 0.017136,0.03372 0.055393,0.062 0.1269531,0.05859 z m 0.2285157,-0.02149 c -0.00273,-4.98e-4 -0.00127,-0.0014 -0.00391,-0.002 -0.028553,-0.0055 -0.02371,-0.01325 -0.042969,-0.01953 0.0027,-0.02116 0.0119,-0.06687 0.00781,-0.146484 0.00915,-0.0029 0.01792,-0.0079 0.027344,-0.0098 0.058128,-0.0115 0.070006,0.188394 0.011719,0.177734 z m -0.039063,-0.167968 c -1.63e-4,-0.0032 2.072e-4,-0.0026 0,-0.0059 0.00104,-4.62e-4 0.00296,-0.0015 0.00391,-0.002 -0.00153,0.0025 -0.00235,0.0053 -0.00391,0.0078 z m -0.00977,0.146489 c -0.1627774,-0.05422 -0.047058,-0.125677 0.00781,-0.150391 -0.00939,0.0019 -0.009,0.01598 -0.011719,0.02539 -0.00905,0.03137 -0.00261,0.07865 0.00391,0.125 z m -0.037109,-0.140625 c -0.028103,0.0079 -0.060204,-2.06e-4 -0.089844,-0.002 -0.018116,-0.03815 -0.063145,-0.06882 -0.140625,-0.05859 -0.045961,0.0061 -0.092144,0.01008 -0.1386718,0.0098 -0.019847,-0.01959 -0.073389,-0.05992 -0.076172,-0.08203 -3.2e-4,-0.0026 0.00249,-0.0038 0.00391,-0.0059 -0.020565,-0.06169 -0.00697,-0.127836 -0.00391,-0.191406 -9.957e-4,0.0058 -2.312e-4,-0.0059 0,-0.01172 0.00112,-0.0028 9.357e-4,-0.0029 0.00195,-0.0059 0.00743,-0.0042 0.014182,-0.0092 0.021484,-0.01367 -0.00216,3.64e-4 0.00439,-0.0011 0.00586,-0.002 0.011671,-0.0031 0.021784,-0.0076 0.033203,-0.01172 0.043681,-0.01105 0.089405,-0.02029 0.1328125,-0.03516 0.00368,-0.0015 0.00777,-0.0039 0.011719,-0.0039 0.00164,3e-6 -0.00348,0.0033 -0.00195,0.0039 0.012898,0.0049 0.081124,0.0034 0.099609,0.0039 0.020384,0.0025 0.040192,-0.0026 0.060547,0 0.00171,3e-4 5.564e-4,0.0049 0.00195,0.0059 0.015233,0.01105 0.046975,0.0228 0.0625,0.0293 0.018748,0.01378 -0.00422,-0.003 0.037109,0.01758 0.00141,7e-4 0.00556,0.0074 0.00586,0.0078 0.00952,0.01215 0.019116,0.02356 0.029297,0.03516 0.00346,0.0061 0.00916,0.01098 0.011719,0.01758 9.999e-4,0.0025 -7.629e-4,0.0072 0,0.0098 0.00293,0.01016 0.0058,0.0195 0.00977,0.0293 0.029111,0.07178 0.010941,0.02149 0.019531,0.04687 -0.00138,-0.0021 -0.00201,-0.0076 -0.00391,-0.0059 -0.01219,0.01069 0.013088,0.07626 0.017578,0.0957 7.517e-4,0.0033 2.066e-4,0.0084 0,0.01367 -0.011743,0.01321 -0.020019,0.02246 -0.035156,0.04883 -0.00771,0.01296 -0.015738,0.02485 -0.023437,0.03711 2.315e-4,-1.11e-4 -0.00558,0.0019 -0.00586,0.002 -0.00222,6.72e-4 4.773e-4,9.8e-5 -0.046875,0.01563 z" />
    <path
       id="path26"
       style="fill:#ff0000;stroke-width:0.0184758"
       d="m 8.6152344,18.986328 v -2.585937 -2.585938 h 1.7695316 c 0.0021,0.0638 0.0049,0.127615 0.002,0.191406 -0.0089,0.07139 -0.0028,0.03341 -0.01563,0.111329 -0.0089,0.07041 -0.0129,0.141904 -0.03906,0.208984 -0.0049,0.01714 -0.03021,0.108496 -0.03711,0.128906 -0.01603,0.04716 -0.04069,0.09073 -0.05469,0.138672 -0.04298,0.08933 -0.113983,0.137886 -0.189453,0.197266 -5.37e-4,7.01e-4 -0.0014,0.0012 -0.002,0.002 H 9.59375 v 0.238234 c -0.041656,0.01521 -0.084035,0.03296 -0.1210938,0.05469 -0.00711,0.0042 -0.012281,0.01173 -0.019531,0.01562 -0.010616,0.0057 -0.022166,0.0088 -0.033203,0.01367 -0.03522,0.01593 -0.1424835,0.02064 -0.1640625,0.04687 -0.00162,0.002 0.00349,9.96e-4 0.00586,0.002 -0.05964,0.0101 0.077191,-0.01035 -0.074219,0.0059 -0.1136332,0.01216 -0.2213658,0.0583 -0.3339844,0.07617 -0.1806396,0.02867 -0.1500088,0.20609 0.03125,0.18164 0.1131484,-0.01526 0.2202198,-0.06533 0.3339844,-0.07617 0.00945,-8.99e-4 0.017854,0.0015 0.027344,0.002 l 0.039062,-0.0059 c 0.033141,0.0048 0.051388,-0.024 0.078125,-0.0332 0.002,-7e-4 -0.00601,0.0041 -0.00391,0.0039 0.013624,-0.0014 0.027569,-0.0052 0.041016,-0.0078 0.071362,-0.01387 -0.014124,0.01 0.080078,-0.01953 0.039312,-0.01614 0.077574,-0.02926 0.1132812,-0.04883 v 1.648345 2.095703 H 9.1035156 Z m 1.6953126,-4.193359 c 0.03231,-0.03674 0.06952,-0.06946 0.09375,-0.113281 0.01802,-0.05358 0.04412,-0.102852 0.0625,-0.15625 0.01315,-0.0382 0.03184,-0.107445 0.04297,-0.146485 0.02943,-0.07861 0.03449,-0.16187 0.04492,-0.244141 0.0044,-0.03474 0.01122,-0.06877 0.01562,-0.103515 0.0051,-0.0717 3.43e-4,-0.143263 -0.002,-0.214844 h 0.632813 2.585937 v 0.488281 0.490235 h -2.095703 z m -0.9003908,-0.15625 c 0.014799,-7.38e-4 0.028151,-0.0019 0.042969,-0.002 0.051704,0.0026 0.1013667,-0.0011 0.1503906,-0.01563 0.01077,0.0016 0.020389,0.0047 0.03125,0.0039 0.015153,-0.0011 0.030074,-0.0066 0.044922,-0.0098 0.053137,-0.02662 0.052232,-0.03829 0.078125,-0.07813 0.040423,-0.0622 0.011605,-0.007 0.039063,-0.06055 -0.048361,0.03686 0.031199,-0.04765 0.046875,-0.07031 0.00876,-0.01267 -0.00699,-0.03361 0.00391,-0.04492 -0.00127,-0.04024 0.00135,-0.03855 -0.00781,-0.08008 -0.00136,-0.0062 -0.00302,-0.01188 -0.00586,-0.01758 -7.5e-4,-0.0015 -0.00375,-0.0022 -0.00391,-0.0039 -0.00916,-0.09989 0.011234,0.01148 -0.00977,-0.08398 -0.00374,-0.0083 -0.00657,-0.01594 -0.011719,-0.02344 -0.00192,-0.0028 0.00301,0.01292 0.00195,0.0098 -0.015878,-0.04843 -0.026918,-0.09917 -0.0625,-0.138672 -0.023448,-0.02669 -0.044945,-0.05541 -0.074219,-0.07617 -0.023962,-0.017 -0.043982,-0.01872 -0.068359,-0.03516 -0.031926,-0.01089 0.010885,0.0035 -0.046875,-0.02344 -0.045056,-0.02099 -0.093344,-0.02744 -0.1425782,-0.02344 -0.058864,-0.0013 -0.1210782,-0.01026 -0.1777344,0.0098 -0.01101,0.0023 -0.022183,0.0036 -0.033203,0.0059 -0.010492,0.0022 -0.020893,0.005 -0.03125,0.0078 -0.00461,0.0018 -0.00885,0.0047 -0.013672,0.0059 -0.011896,0.003 -0.025247,0.0048 -0.037109,0.0078 -0.00911,0.0024 -0.016521,0.0047 -0.025391,0.0078 0.021195,0.007 -0.00301,-8.94e-4 -0.046875,0.01758 -0.00757,0.0032 -0.012731,0.0091 -0.019531,0.01367 0.0078,-0.0028 0.031287,-0.01042 0.023437,-0.0078 -0.051857,0.01719 -0.032689,0.0081 -0.074219,0.03516 -0.030334,0.04382 -0.061644,0.08443 -0.058594,0.148437 -0.00363,0.07974 -0.01508,0.160712 0.00977,0.238282 0.00671,0.02185 0.010111,0.04559 0.019531,0.06641 0.024836,0.05488 0.087689,0.09927 0.1308593,0.138672 0.024626,0.01594 0.026677,0.02014 0.056641,0.02734 0.04441,0.01072 0.095415,-7.65e-4 0.1445312,-0.0078 0.017136,0.03372 0.055393,0.062 0.1269531,0.05859 z m 0.2285157,-0.02149 c -0.00273,-4.98e-4 -0.00127,-0.0014 -0.00391,-0.002 -0.028553,-0.0055 -0.02371,-0.01325 -0.042969,-0.01953 0.0027,-0.02116 0.0119,-0.06687 0.00781,-0.146484 0.00915,-0.0029 0.01792,-0.0079 0.027344,-0.0098 0.058128,-0.0115 0.070006,0.188394 0.011719,0.177734 z m -0.039063,-0.167968 c -1.63e-4,-0.0032 2.072e-4,-0.0026 0,-0.0059 0.00104,-4.62e-4 0.00296,-0.0015 0.00391,-0.002 -0.00153,0.0025 -0.00235,0.0053 -0.00391,0.0078 z m -0.00977,0.146489 c -0.1627774,-0.05422 -0.047058,-0.125677 0.00781,-0.150391 -0.00939,0.0019 -0.009,0.01598 -0.011719,0.02539 -0.00905,0.03137 -0.00261,0.07865 0.00391,0.125 z m -0.037109,-0.140625 c -0.028103,0.0079 -0.060204,-2.06e-4 -0.089844,-0.002 -0.018116,-0.03815 -0.063145,-0.06882 -0.140625,-0.05859 -0.045961,0.0061 -0.092144,0.01008 -0.1386718,0.0098 -0.019847,-0.01959 -0.073389,-0.05992 -0.076172,-0.08203 -3.2e-4,-0.0026 0.00249,-0.0038 0.00391,-0.0059 -0.020565,-0.06169 -0.00697,-0.127836 -0.00391,-0.191406 -9.957e-4,0.0058 -2.312e-4,-0.0059 0,-0.01172 0.00112,-0.0028 9.357e-4,-0.0029 0.00195,-0.0059 0.00743,-0.0042 0.014182,-0.0092 0.021484,-0.01367 -0.00216,3.64e-4 0.00439,-0.0011 0.00586,-0.002 0.011671,-0.0031 0.021784,-0.0076 0.033203,-0.01172 0.043681,-0.01105 0.089405,-0.02029 0.1328125,-0.03516 0.00368,-0.0015 0.00777,-0.0039 0.011719,-0.0039 0.00164,3e-6 -0.00348,0.0033 -0.00195,0.0039 0.012898,0.0049 0.081124,0.0034 0.099609,0.0039 0.020384,0.0025 0.040192,-0.0026 0.060547,0 0.00171,3e-4 5.564e-4,0.0049 0.00195,0.0059 0.015233,0.01105 0.046975,0.0228 0.0625,0.0293 0.018748,0.01378 -0.00422,-0.003 0.037109,0.01758 0.00141,7e-4 0.00556,0.0074 0.00586,0.0078 0.00952,0.01215 0.019116,0.02356 0.029297,0.03516 0.00346,0.0061 0.00916,0.01098 0.011719,0.01758 9.999e-4,0.0025 -7.629e-4,0.0072 0,0.0098 0.00293,0.01016 0.0058,0.0195 0.00977,0.0293 0.029111,0.07178 0.010941,0.02149 0.019531,0.04687 -0.00138,-0.0021 -0.00201,-0.0076 -0.00391,-0.0059 -0.01219,0.01069 0.013088,0.07626 0.017578,0.0957 7.517e-4,0.0033 2.066e-4,0.0084 0,0.01367 -0.011743,0.01321 -0.020019,0.02246 -0.035156,0.04883 -0.00771,0.01296 -0.015738,0.02485 -0.023437,0.03711 2.315e-4,-1.11e-4 -0.00558,0.0019 -0.00586,0.002 -0.00222,6.72e-4 4.773e-4,9.8e-5 -0.046875,0.01563 z" />
    <path
       id="path28"
       style="fill:#ff0000;stroke-width:0.0184758"
       d="m 8.6152344,18.986328 v -2.585937 -2.585938 h 1.7695316 c 0.0021,0.0638 0.0049,0.127615 0.002,0.191406 -0.0089,0.07139 -0.0028,0.03341 -0.01563,0.111329 -0.0089,0.07041 -0.0129,0.141904 -0.03906,0.208984 -0.0049,0.01714 -0.03021,0.108496 -0.03711,0.128906 -0.01603,0.04716 -0.04069,0.09073 -0.05469,0.138672 -0.04298,0.08933 -0.113983,0.137886 -0.189453,0.197266 -0.0052,0.0068 -0.01063,0.01448 -0.01563,0.02148 -0.0026,0.0036 -0.0027,0.0086 -0.0059,0.01172 -0.02679,0.02589 -0.066184,0.03474 -0.095703,0.05664 -0.052885,0.02799 -0.1078123,0.04904 -0.1601563,0.07813 -0.014745,0.0082 -0.029761,0.01685 -0.042969,0.02734 -0.0029,0.0023 -4.963e-4,0.0084 -0.00391,0.0098 -0.012033,0.005 -0.026283,0.0051 -0.039063,0.0078 -0.021002,0.0044 -0.041901,0.0077 -0.0625,0.01367 -0.052,0.01503 -0.1057717,0.04106 -0.1523438,0.06836 -0.00711,0.0042 -0.012281,0.01173 -0.019531,0.01562 -0.010616,0.0057 -0.022166,0.0088 -0.033203,0.01367 -0.03522,0.01593 -0.1424835,0.02064 -0.1640625,0.04687 -0.00162,0.002 0.00349,9.96e-4 0.00586,0.002 -0.05964,0.0101 0.077191,-0.01035 -0.074219,0.0059 -0.1136332,0.01216 -0.2213658,0.0583 -0.3339844,0.07617 -0.1806396,0.02867 -0.1500088,0.20609 0.03125,0.18164 0.1131484,-0.01526 0.2202198,-0.06533 0.3339844,-0.07617 0.00945,-8.99e-4 0.017854,0.0015 0.027344,0.002 l 0.039062,-0.0059 c 0.033141,0.0048 0.051388,-0.024 0.078125,-0.0332 0.002,-7e-4 -0.00601,0.0041 -0.00391,0.0039 0.013624,-0.0014 0.027569,-0.0052 0.041016,-0.0078 0.071362,-0.01387 -0.014124,0.01 0.080078,-0.01953 0.083614,-0.03432 0.1480233,-0.09301 0.2402343,-0.105469 0.014292,-0.003 0.029433,-0.0023 0.042969,-0.0078 0.068425,-0.02763 0.054022,-0.03372 0.109375,-0.06445 0.033689,-0.01871 0.05297,-0.02257 0.087891,-0.03906 0.019688,-0.0093 0.039233,-0.0193 0.058594,-0.0293 0.03888,-0.02477 0.08359,-0.04226 0.119141,-0.07227 0.0239,-0.02019 0.03972,-0.04402 0.05859,-0.06836 0.02247,0.0014 0.0066,0.0017 0.04492,-0.0293 0.06762,-0.05462 0.120289,-0.119674 0.162109,-0.195312 0.01802,-0.05358 0.04412,-0.102852 0.0625,-0.15625 0.01315,-0.0382 0.03184,-0.107445 0.04297,-0.146485 0.02943,-0.07861 0.03449,-0.16187 0.04492,-0.244141 0.0044,-0.03474 0.01122,-0.06877 0.01562,-0.103515 0.0051,-0.0717 3.43e-4,-0.143263 -0.002,-0.214844 h 0.632813 2.585937 v 0.488164 0.490235 H 11.691406 L 10,15.78125 9.59375,16.890625 v 2.095703 H 9.1035156 Z m 0.7949218,-4.349609 c 0.014799,-7.38e-4 0.028151,-0.0019 0.042969,-0.002 0.051704,0.0026 0.1013667,-0.0011 0.1503906,-0.01563 0.01077,0.0016 0.020389,0.0047 0.03125,0.0039 0.015153,-0.0011 0.030074,-0.0066 0.044922,-0.0098 0.053137,-0.02662 0.052232,-0.03829 0.078125,-0.07813 0.040423,-0.0622 0.011605,-0.007 0.039063,-0.06055 -0.048361,0.03686 0.031199,-0.04765 0.046875,-0.07031 0.00876,-0.01267 -0.00699,-0.03361 0.00391,-0.04492 -0.00127,-0.04024 0.00135,-0.03855 -0.00781,-0.08008 -0.00136,-0.0062 -0.00302,-0.01188 -0.00586,-0.01758 -7.5e-4,-0.0015 -0.00375,-0.0022 -0.00391,-0.0039 -0.00916,-0.09989 0.011234,0.01148 -0.00977,-0.08398 -0.00374,-0.0083 -0.00657,-0.01594 -0.011719,-0.02344 -0.00192,-0.0028 0.00301,0.01292 0.00195,0.0098 -0.015878,-0.04843 -0.026918,-0.09917 -0.0625,-0.138672 -0.023448,-0.02669 -0.044945,-0.05541 -0.074219,-0.07617 -0.023962,-0.017 -0.043982,-0.01872 -0.068359,-0.03516 -0.031926,-0.01089 0.010885,0.0035 -0.046875,-0.02344 -0.045056,-0.02099 -0.093344,-0.02744 -0.1425782,-0.02344 -0.058864,-0.0013 -0.1210782,-0.01026 -0.1777344,0.0098 -0.01101,0.0023 -0.022183,0.0036 -0.033203,0.0059 -0.010492,0.0022 -0.020893,0.005 -0.03125,0.0078 -0.00461,0.0018 -0.00885,0.0047 -0.013672,0.0059 -0.011896,0.003 -0.025247,0.0048 -0.037109,0.0078 -0.00911,0.0024 -0.016521,0.0047 -0.025391,0.0078 0.021195,0.007 -0.00301,-8.94e-4 -0.046875,0.01758 -0.00757,0.0032 -0.012731,0.0091 -0.019531,0.01367 0.0078,-0.0028 0.031287,-0.01042 0.023437,-0.0078 -0.051857,0.01719 -0.032689,0.0081 -0.074219,0.03516 -0.030334,0.04382 -0.061644,0.08443 -0.058594,0.148437 -0.00363,0.07974 -0.01508,0.160712 0.00977,0.238282 0.00671,0.02185 0.010111,0.04559 0.019531,0.06641 0.024836,0.05488 0.087689,0.09927 0.1308593,0.138672 0.024626,0.01594 0.026677,0.02014 0.056641,0.02734 0.04441,0.01072 0.095415,-7.65e-4 0.1445312,-0.0078 0.017136,0.03372 0.055393,0.062 0.1269531,0.05859 z m 0.2285157,-0.02149 c -0.00273,-4.98e-4 -0.00127,-0.0014 -0.00391,-0.002 -0.028553,-0.0055 -0.02371,-0.01325 -0.042969,-0.01953 0.0027,-0.02116 0.0119,-0.06687 0.00781,-0.146484 0.00915,-0.0029 0.01792,-0.0079 0.027344,-0.0098 0.058128,-0.0115 0.070006,0.188394 0.011719,0.177734 z m -0.039063,-0.167968 c -1.63e-4,-0.0032 2.072e-4,-0.0026 0,-0.0059 0.00104,-4.62e-4 0.00296,-0.0015 0.00391,-0.002 -0.00153,0.0025 -0.00235,0.0053 -0.00391,0.0078 z m -0.00977,0.146489 c -0.1627774,-0.05422 -0.047058,-0.125677 0.00781,-0.150391 -0.00939,0.0019 -0.009,0.01598 -0.011719,0.02539 -0.00905,0.03137 -0.00261,0.07865 0.00391,0.125 z m -0.037109,-0.140625 c -0.028103,0.0079 -0.060204,-2.06e-4 -0.089844,-0.002 -0.018116,-0.03815 -0.063145,-0.06882 -0.140625,-0.05859 -0.045961,0.0061 -0.092144,0.01008 -0.1386718,0.0098 -0.019847,-0.01959 -0.073389,-0.05992 -0.076172,-0.08203 -3.2e-4,-0.0026 0.00249,-0.0038 0.00391,-0.0059 -0.020565,-0.06169 -0.00697,-0.127836 -0.00391,-0.191406 -9.957e-4,0.0058 -2.312e-4,-0.0059 0,-0.01172 0.00112,-0.0028 9.357e-4,-0.0029 0.00195,-0.0059 0.00743,-0.0042 0.014182,-0.0092 0.021484,-0.01367 -0.00216,3.64e-4 0.00439,-0.0011 0.00586,-0.002 0.011671,-0.0031 0.021784,-0.0076 0.033203,-0.01172 0.043681,-0.01105 0.089405,-0.02029 0.1328125,-0.03516 0.00368,-0.0015 0.00777,-0.0039 0.011719,-0.0039 0.00164,3e-6 -0.00348,0.0033 -0.00195,0.0039 0.012898,0.0049 0.081124,0.0034 0.099609,0.0039 0.020384,0.0025 0.040192,-0.0026 0.060547,0 0.00171,3e-4 5.564e-4,0.0049 0.00195,0.0059 0.015233,0.01105 0.046975,0.0228 0.0625,0.0293 0.018748,0.01378 -0.00422,-0.003 0.037109,0.01758 0.00141,7e-4 0.00556,0.0074 0.00586,0.0078 0.00952,0.01215 0.019116,0.02356 0.029297,0.03516 0.00346,0.0061 0.00916,0.01098 0.011719,0.01758 9.999e-4,0.0025 -7.629e-4,0.0072 0,0.0098 0.00293,0.01016 0.0058,0.0195 0.00977,0.0293 0.029111,0.07178 0.010941,0.02149 0.019531,0.04687 -0.00138,-0.0021 -0.00201,-0.0076 -0.00391,-0.0059 -0.01219,0.01069 0.013088,0.07626 0.017578,0.0957 7.517e-4,0.0033 2.066e-4,0.0084 0,0.01367 -0.011743,0.01321 -0.020019,0.02246 -0.035156,0.04883 -0.00771,0.01296 -0.015738,0.02485 -0.023437,0.03711 2.315e-4,-1.11e-4 -0.00558,0.0019 -0.00586,0.002 -0.00222,6.72e-4 4.773e-4,9.8e-5 -0.046875,0.01563 z" />
    <path
       id="path34"
       style="fill:#ff0000;stroke-width:0.0184758"
       d="m 8,19 -4.003906,-8.234375 0.0039,-1.984375 1.990234,-0.011719 7.800782,4.011719 -0.0039,1.521484 v 0.490235 h -1.05664 -1.058594 l -0.822266,0.480469 c -0.452194,0.264504 -0.83162,0.491646 -0.84375,0.503906 -0.012128,0.01227 -0.1095262,0.261647 -0.2167965,0.554687 L 9.593744,16.865234 v 1.060547 1.060547 H 9.1035156 Z m 0.8847656,-3.572266 c 0.1131484,-0.01526 0.2202198,-0.06533 0.3339844,-0.07617 0.00945,-8.99e-4 0.017854,0.0015 0.027344,0.002 l 0.039062,-0.0059 c 0.033141,0.0048 0.051388,-0.024 0.078125,-0.0332 0.002,-7e-4 -0.00601,0.0041 -0.00391,0.0039 0.013624,-0.0014 0.027569,-0.0052 0.041016,-0.0078 0.071362,-0.01387 -0.014124,0.01 0.080078,-0.01953 0.083614,-0.03432 0.1480233,-0.09301 0.2402343,-0.105469 0.014292,-0.003 0.029433,-0.0023 0.042969,-0.0078 0.068425,-0.02763 0.054022,-0.03372 0.109375,-0.06445 0.033689,-0.01871 0.05297,-0.02257 0.087891,-0.03906 0.019688,-0.0093 0.039233,-0.0193 0.058594,-0.0293 0.03888,-0.02477 0.08359,-0.04226 0.119141,-0.07227 0.0239,-0.02019 0.03972,-0.04402 0.05859,-0.06836 0.02247,0.0014 0.0066,0.0017 0.04492,-0.0293 0.06762,-0.05462 0.120289,-0.119674 0.162109,-0.195312 0.01802,-0.05358 0.04412,-0.102852 0.0625,-0.15625 0.01315,-0.0382 0.03184,-0.107445 0.04297,-0.146485 0.02943,-0.07861 0.03449,-0.16187 0.04492,-0.244141 0.0044,-0.03474 0.01122,-0.06877 0.01562,-0.103515 0.008,-0.112117 -0.0027,-0.223791 -0.002,-0.335938 0.0014,-0.08528 3.84e-4,-0.170569 0,-0.255859 0.0036,-0.03811 -0.01764,-0.07426 -0.03711,-0.105469 -0.09682,-0.155173 -0.25315,-0.05747 -0.15625,0.09766 0.0015,0.0023 0.0025,0.0055 0.0039,0.0078 0.0314,0.05076 -0.0035,-0.0607 0.0059,0 3.67e-4,0.08466 -5.52e-4,0.169256 -0.002,0.253906 -5.99e-4,0.104802 0.0087,0.20965 0.0039,0.314453 -0.0089,0.07139 -0.0028,0.03341 -0.01563,0.111329 -0.0089,0.07041 -0.0129,0.141904 -0.03906,0.208984 -0.0049,0.01714 -0.03021,0.108496 -0.03711,0.128906 -0.01603,0.04716 -0.04069,0.09073 -0.05469,0.138672 -0.04298,0.08933 -0.113983,0.137886 -0.189453,0.197266 -0.0052,0.0068 -0.01063,0.01448 -0.01563,0.02148 -0.0026,0.0036 -0.0027,0.0086 -0.0059,0.01172 -0.02679,0.02589 -0.066184,0.03474 -0.095703,0.05664 -0.052885,0.02799 -0.1078123,0.04904 -0.1601563,0.07813 -0.014745,0.0082 -0.029761,0.01685 -0.042969,0.02734 -0.0029,0.0023 -4.963e-4,0.0084 -0.00391,0.0098 -0.012033,0.005 -0.026283,0.0051 -0.039063,0.0078 -0.021002,0.0044 -0.041901,0.0077 -0.0625,0.01367 -0.052,0.01503 -0.1057717,0.04106 -0.1523438,0.06836 -0.00711,0.0042 -0.012281,0.01173 -0.019531,0.01562 -0.010616,0.0057 -0.022166,0.0088 -0.033203,0.01367 -0.03522,0.01593 -0.1424835,0.02064 -0.1640625,0.04687 -0.00162,0.002 0.00349,9.96e-4 0.00586,0.002 -0.05964,0.0101 0.077191,-0.01035 -0.074219,0.0059 -0.1136332,0.01216 -0.2213658,0.0583 -0.3339844,0.07617 -0.1806396,0.02867 -0.1500088,0.20609 0.03125,0.18164 z m 0.5253906,-0.791015 c 0.014799,-7.38e-4 0.028151,-0.0019 0.042969,-0.002 0.051704,0.0026 0.1013667,-0.0011 0.1503906,-0.01563 0.01077,0.0016 0.020389,0.0047 0.03125,0.0039 0.015153,-0.0011 0.030074,-0.0066 0.044922,-0.0098 0.053137,-0.02662 0.052232,-0.03829 0.078125,-0.07813 0.040423,-0.0622 0.011605,-0.007 0.039063,-0.06055 -0.048361,0.03686 0.031199,-0.04765 0.046875,-0.07031 0.00876,-0.01267 -0.00699,-0.03361 0.00391,-0.04492 -0.00127,-0.04024 0.00135,-0.03855 -0.00781,-0.08008 -0.00136,-0.0062 -0.00302,-0.01188 -0.00586,-0.01758 -7.5e-4,-0.0015 -0.00375,-0.0022 -0.00391,-0.0039 -0.00916,-0.09989 0.011234,0.01148 -0.00977,-0.08398 -0.00374,-0.0083 -0.00657,-0.01594 -0.011719,-0.02344 -0.00192,-0.0028 0.00301,0.01292 0.00195,0.0098 -0.015878,-0.04843 -0.026918,-0.09917 -0.0625,-0.138672 -0.023448,-0.02669 -0.044945,-0.05541 -0.074219,-0.07617 -0.023962,-0.017 -0.043982,-0.01872 -0.068359,-0.03516 -0.031926,-0.01089 0.010885,0.0035 -0.046875,-0.02344 -0.045056,-0.02099 -0.093344,-0.02744 -0.1425782,-0.02344 -0.058864,-0.0013 -0.1210782,-0.01026 -0.1777344,0.0098 -0.01101,0.0023 -0.022183,0.0036 -0.033203,0.0059 -0.010492,0.0022 -0.020893,0.005 -0.03125,0.0078 -0.00461,0.0018 -0.00885,0.0047 -0.013672,0.0059 -0.011896,0.003 -0.025247,0.0048 -0.037109,0.0078 -0.00911,0.0024 -0.016521,0.0047 -0.025391,0.0078 0.021195,0.007 -0.00301,-8.94e-4 -0.046875,0.01758 -0.00757,0.0032 -0.012731,0.0091 -0.019531,0.01367 0.0078,-0.0028 0.031287,-0.01042 0.023437,-0.0078 -0.051857,0.01719 -0.032689,0.0081 -0.074219,0.03516 -0.030334,0.04382 -0.061644,0.08443 -0.058594,0.148437 -0.00363,0.07974 -0.01508,0.160712 0.00977,0.238282 0.00671,0.02185 0.010111,0.04559 0.019531,0.06641 0.024836,0.05488 0.087689,0.09927 0.1308593,0.138672 0.024626,0.01594 0.026677,0.02014 0.056641,0.02734 0.04441,0.01072 0.095415,-7.65e-4 0.1445312,-0.0078 0.017136,0.03372 0.055393,0.062 0.1269531,0.05859 z m 0.2285157,-0.02149 c -0.00273,-4.98e-4 -0.00127,-0.0014 -0.00391,-0.002 -0.028553,-0.0055 -0.02371,-0.01325 -0.042969,-0.01953 0.0027,-0.02116 0.0119,-0.06687 0.00781,-0.146484 0.00915,-0.0029 0.01792,-0.0079 0.027344,-0.0098 0.058128,-0.0115 0.070006,0.188394 0.011719,0.177734 z m -0.039063,-0.167968 c -1.63e-4,-0.0032 2.072e-4,-0.0026 0,-0.0059 0.00104,-4.62e-4 0.00296,-0.0015 0.00391,-0.002 -0.00153,0.0025 -0.00235,0.0053 -0.00391,0.0078 z m -0.00977,0.146489 c -0.1627774,-0.05422 -0.047058,-0.125677 0.00781,-0.150391 -0.00939,0.0019 -0.009,0.01598 -0.011719,0.02539 -0.00905,0.03137 -0.00261,0.07865 0.00391,0.125 z m -0.037109,-0.140625 c -0.028103,0.0079 -0.060204,-2.06e-4 -0.089844,-0.002 -0.018116,-0.03815 -0.063145,-0.06882 -0.140625,-0.05859 -0.045961,0.0061 -0.092144,0.01008 -0.1386718,0.0098 -0.019847,-0.01959 -0.073389,-0.05992 -0.076172,-0.08203 -3.2e-4,-0.0026 0.00249,-0.0038 0.00391,-0.0059 -0.020565,-0.06169 -0.00697,-0.127836 -0.00391,-0.191406 -9.957e-4,0.0058 -2.312e-4,-0.0059 0,-0.01172 0.00112,-0.0028 9.357e-4,-0.0029 0.00195,-0.0059 0.00743,-0.0042 0.014182,-0.0092 0.021484,-0.01367 -0.00216,3.64e-4 0.00439,-0.0011 0.00586,-0.002 0.011671,-0.0031 0.021784,-0.0076 0.033203,-0.01172 0.043681,-0.01105 0.089405,-0.02029 0.1328125,-0.03516 0.00368,-0.0015 0.00777,-0.0039 0.011719,-0.0039 0.00164,3e-6 -0.00348,0.0033 -0.00195,0.0039 0.012898,0.0049 0.081124,0.0034 0.099609,0.0039 0.020384,0.0025 0.040192,-0.0026 0.060547,0 0.00171,3e-4 5.564e-4,0.0049 0.00195,0.0059 0.015233,0.01105 0.046975,0.0228 0.0625,0.0293 0.018748,0.01378 -0.00422,-0.003 0.037109,0.01758 0.00141,7e-4 0.00556,0.0074 0.00586,0.0078 0.00952,0.01215 0.019116,0.02356 0.029297,0.03516 0.00346,0.0061 0.00916,0.01098 0.011719,0.01758 9.999e-4,0.0025 -7.629e-4,0.0072 0,0.0098 0.00293,0.01016 0.0058,0.0195 0.00977,0.0293 0.029111,0.07178 0.010941,0.02149 0.019531,0.04687 -0.00138,-0.0021 -0.00201,-0.0076 -0.00391,-0.0059 -0.01219,0.01069 0.013088,0.07626 0.017578,0.0957 7.517e-4,0.0033 2.066e-4,0.0084 0,0.01367 -0.011743,0.01321 -0.020019,0.02246 -0.035156,0.04883 -0.00771,0.01296 -0.015738,0.02485 -0.023437,0.03711 2.315e-4,-1.11e-4 -0.00558,0.0019 -0.00586,0.002 -0.00222,6.72e-4 4.773e-4,9.8e-5 -0.046875,0.01563 z M 8.4042924,13.660156 c 0.029029,0.0129 0.064084,0.01552 0.1054687,-0.0039 l 0.017578,-0.0098 c 0.026833,-0.01588 0.049606,-0.03137 0.068359,-0.05664 0.029298,-0.03949 0.055648,-0.06516 0.048828,-0.121094 -0.00265,-0.02116 0.00106,-0.0557 0.00195,-0.07422 0.00372,-0.0772 0.014096,-0.152725 -0.00977,-0.228515 -0.011437,-0.01337 -0.019835,-0.02763 -0.033203,-0.03906 -0.035234,-0.03014 -0.095045,-0.04097 -0.1386718,-0.04297 -0.045778,-0.0057 -0.1285998,-0.01135 -0.1679688,0.01172 -0.025023,0.01466 -0.044369,0.03779 -0.066406,0.05664 -0.018104,0.06372 -0.020235,0.06627 -0.015625,0.126953 4.273e-4,0.0056 0.00106,0.01008 0.00195,0.01563 -0.010817,0.01971 -0.00621,0.04784 0.035156,0.136719 0.00644,0.01385 0.028069,0.01037 0.042969,0.01367 0.065181,0.01461 0.091398,0.01172 0.1601562,0.01172 0.00267,0 0.00327,-0.0019 0.00586,-0.002 5.13e-5,0.0078 -3.461e-4,0.01559 0,0.02344 2.688e-4,0.0048 -3.201e-4,0.0204 0,0.01563 6.3e-4,-0.0094 0.00239,-0.0363 -0.00391,-0.0293 -0.075113,0.08381 0.012158,0.0066 -0.019531,0.02148 h -0.00195 c -0.1370106,-0.0067 -0.1183364,0.135128 -0.03125,0.173828 z m -0.1796875,-0.375 c 0.00219,-0.0049 0.00553,-0.0088 0.00781,-0.01367 0.00892,-0.0071 0.036004,-0.02898 0.027344,-0.02148 -0.021556,0.01856 -0.02621,0.02523 -0.035156,0.03516 z m 0.2851607,-0.0039 c 0.00328,0.0013 -0.0087,-5.9e-5 -0.011719,-0.002 l -0.00195,-0.002 c 0.0044,0.0012 0.00943,0.0023 0.013672,0.0039 z m -0.041016,-0.0059 c -0.00574,-4.04e-4 -0.00752,-0.0039 -0.013672,-0.0039 -0.020031,0 -0.040517,5.7e-5 -0.060547,0 -2.268e-4,-0.0027 0.00218,-0.0051 0.00195,-0.0078 0.01529,2.72e-4 0.029301,0.002 0.044922,0.0039 0.00891,0.0031 0.018131,0.0028 0.027344,0.002 -3.3e-4,0.0019 2.103e-4,0.004 0,0.0059 z m -0.070312,-0.04883 c -4.265e-4,-0.0054 -0.00111,-0.01037 0,-0.01562 0.00103,-0.0049 0.00123,0.0088 0.00195,0.01367 z M 7.2460939,12.460902 c 0.00629,0.0072 0.019707,-0.0013 0.029297,-0.002 0.039054,-0.0027 0.076476,-0.0083 0.1152344,-0.01367 0.072078,-0.01009 0.1041555,-0.0452 0.1132812,-0.08203 0.022295,0.02649 0.041383,0.05107 0.050781,0.07031 -0.012102,0.0015 -0.023261,0.0041 -0.035156,0.0078 -0.016898,-0.0082 -0.034008,-0.0088 -0.050781,-0.01367 0.00202,0.0017 0.018406,0.01092 0.03125,0.01953 -0.00768,0.0029 -0.016032,8.67e-4 -0.023437,0.0039 -0.011236,0.0046 0.023266,0.0053 0.035156,0.0078 0.00532,0.0011 0.00147,-0.0026 0.00586,-0.002 0.018031,0.0026 0.018683,-0.0052 0.023437,-0.0098 0.015615,0.0056 0.031679,0.0193 0.046875,0.01367 0.062904,-0.02329 0.051094,-0.105377 0.058594,-0.154297 0.00572,-0.03414 0.017546,-0.07789 0.00586,-0.111329 -0.02091,-0.0598 -0.075476,-0.09418 -0.1269532,-0.123046 -0.00813,-0.0034 -0.017931,-0.0031 -0.025391,-0.0078 -0.039244,-0.02463 -0.07875,-0.05468 -0.1289062,-0.05078 -0.015587,-2e-4 -0.02938,-0.0032 -0.044922,-0.0039 -0.031578,-0.0015 -0.061123,0.0024 -0.089844,0.01563 0.00131,0.01287 -0.047481,0.0046 -0.056641,0.01367 -0.077258,0.07652 -0.082104,0.07413 -0.070312,0.150391 0.00187,0.0097 0.00311,0.0198 0.00586,0.0293 h 0.00195 c 0.00113,0.01779 -0.00231,0.03701 0,0.05469 0.00501,0.03838 0.02468,0.07259 0.046875,0.103515 9.048e-4,-0.01386 0.00102,-0.02719 0.00195,-0.04101 0.023365,0.04331 0.047933,0.08782 0.080078,0.125 z m 0.3085937,-0.02734 c 0.011325,-0.0014 0.021951,-0.0075 0.033203,-0.0059 0.010603,0.0015 -0.016659,0.0068 -0.029297,0.01172 -5.684e-4,-0.0015 -0.00314,-0.0043 -0.00391,-0.0059 z m -0.089844,-0.15625 c -0.0252,-0.01293 -0.059849,-0.01976 -0.1035157,-0.01367 -0.017151,0.0024 -0.031474,0.0038 -0.046875,0.0059 -0.00698,-0.01103 -0.014563,-0.02103 -0.017578,-0.03125 -0.00435,-0.0148 0.00641,0.0032 0.00586,-0.0078 -5.155e-4,-0.01024 -0.00226,-0.02068 -0.00391,-0.03125 0.00638,-0.0022 -0.00266,0.0015 0.00781,-0.002 0.038068,-0.01236 -0.0066,-0.0016 0.056641,0.002 0.00188,-8e-6 0.00398,7.8e-5 0.00586,0 -4.97e-4,0.0064 0.012058,0.0044 0.017578,0.0078 8.672e-4,5e-4 0.0011,0.0033 0.00195,0.0039 0.024251,0.01615 0.035815,0.01955 0.0625,0.03125 2.215e-4,-6.53e-4 0.00954,0.0071 0.017578,0.01367 -0.00194,0.0056 -0.00269,0.01168 -0.00391,0.01758 -2.115e-4,0.0013 2.066e-4,0.0026 0,0.0039 z M 6.427734,11.48239 c 0.01209,-0.0095 0.01775,-0.02795 0.02148,-0.04883 0.0079,4.78e-4 0.0108,0.0062 0.01953,0.0059 0.02231,-0.001 0.04437,0.0025 0.06641,0.0059 0.04948,-0.0011 0.06353,0.0047 0.109375,-0.0332 0.01301,-0.01075 0.04065,-0.03259 0.02734,-0.04297 -0.0133,-0.01038 -0.02299,0.02737 -0.03516,0.03906 -0.0019,0.0018 -0.0053,8.12e-4 -0.0078,0.002 0.02201,-0.02943 0.04439,-0.05846 0.06641,-0.08789 -7.5e-4,-0.02936 0.0015,-0.02851 -0.0039,-0.05859 -0.0025,-0.01425 -0.0095,-0.02671 -0.01172,-0.04102 -0.0025,-0.01623 -0.0011,-0.03313 -0.0059,-0.04883 -0.0057,-0.01876 -0.01674,-0.03513 -0.02539,-0.05273 -0.01128,-0.0097 -0.0314,-0.01849 -0.04883,-0.0293 0.0077,0.0081 0.02179,0.02215 0.01563,0.01758 -0.0099,-0.0074 -0.01651,-0.01434 -0.02734,-0.02539 0.0033,0.0013 0.0066,0.0021 0.0098,0.0039 -0.0035,-0.003 -0.0051,-0.0051 -0.01172,-0.0078 -0.0031,-0.0036 -0.02517,-0.0204 -0.01367,-0.01172 -0.04993,-0.03503 -0.08375,-0.03796 -0.140625,-0.03906 -0.01655,-3.15e-4 -0.03248,-0.0026 -0.04883,0 -0.0217,0.0034 -0.04328,0.01168 -0.06445,0.01758 -0.0027,0.0019 -0.0032,0.0034 -0.0078,0.0059 -0.0051,0.0023 -0.0081,4.34e-4 -0.01172,0.002 -0.05549,0.02053 -0.04356,0.03679 -0.08789,0.103515 2.3e-4,0.0194 0.0027,0.03746 0.0059,0.05664 3.5e-4,0.0021 -0.0013,0.0076 0,0.0059 0.0033,-0.0046 0.004,-0.01032 0.0059,-0.01563 0.0038,-0.0051 0.0079,-0.01051 0.01172,-0.01563 -0.08106,0.100318 -0.02774,0.197066 0.06836,0.259766 0.02117,0.01381 0.04542,0.02063 0.06836,0.03125 0.02603,0.01205 0.04455,0.01127 0.05664,0.002 z m 0.158203,-0.40235 c 7.01e-4,8.15e-4 7.72e-4,0.0027 0.0019,0.0039 -0.0067,-0.0027 -0.01074,-0.01213 -0.01758,-0.01172 -0.0057,3.43e-4 0.0073,0.0044 0.01563,0.0078 z m -0.08984,0.23246 c -0.0052,0.0061 0.0039,-0.01347 0.0098,-0.02148 4.54e-4,0.002 -3.44e-4,0.0041 0,0.0059 -0.0034,0.0052 -0.0058,0.01084 -0.0098,0.01563 z M 6.386722,11.27734 c 0.0082,-0.02228 0.01398,-0.04545 0.01172,-0.06641 l 0.02148,-0.0098 c -0.0051,0.0038 -0.0195,0.0067 -0.01563,0.01172 0.005,0.0066 0.01711,-4.27e-4 0.02539,0 0.0094,4.68e-4 0.01988,0.0014 0.0293,0.002 h 0.002 c 0.0018,0.0011 0.0026,0.003 0.0039,0.0039 0.0039,0.0019 0.0057,0.0021 0.01172,0.0059 0.0056,0.0051 -2.2e-5,0.0048 0.01172,0.01172 0.0018,0.0011 0.004,0.0011 0.0059,0.002 8.2e-4,0.0059 0.001,0.0097 0.0039,0.01953 -0.01094,-4.6e-4 -0.02224,-0.004 -0.0332,-0.0039 -0.03509,3.85e-4 -0.05674,0.01189 -0.07813,0.02344 z m 0.15039,-0.02344 c -0.0046,-9.99e-4 -0.01753,-0.004 -0.02539,-0.0078 0.0084,0.0023 0.01699,0.0032 0.02539,0.0059 z M 5.468753,10.554688 c 0.122533,0.01926 0.155006,-0.06159 0.111328,-0.123047 0.0056,-0.0012 0.01177,-0.0019 0.01172,-0.002 -0.0046,-5.17e-4 -0.0091,-9.6e-5 -0.01367,0 -0.0027,-0.0036 -5.77e-4,-0.0083 -0.0039,-0.01172 0.03308,-0.02245 0.06988,-0.04176 0.09766,-0.07031 0.01506,-0.01548 -0.01443,-0.0847 -0.01953,-0.103515 -0.0044,-0.01608 -0.0081,-0.03256 -0.01172,-0.04883 -0.0076,-0.01752 -0.02161,-0.053 -0.02734,-0.0625 -0.03117,-0.05172 -0.08898,-0.08898 -0.15039,-0.08398 -0.0076,3e-4 -0.01588,0.0031 -0.02344,0.002 -0.05355,-0.0081 -0.04991,-0.01788 -0.119141,0.01563 -0.0042,0.0054 -0.0066,0.01252 -0.01172,0.01758 -0.0052,0.0044 -0.008,0.0047 -0.01172,0.0078 -0.0028,0.0023 -0.005,0.0055 -0.0078,0.0078 -0.01489,0.01209 -0.02514,0.01288 -0.04492,0.01758 -0.02374,0.01242 -0.05205,0.0175 -0.07031,0.03711 -0.0463,0.04972 -0.0226,0.140072 -0.03125,0.201172 -0.0031,0.03092 -0.0078,0.04898 0.0059,0.08203 0.0054,0.01316 0.06752,0.09465 0.08984,0.07422 0.07305,0.0278 0.152827,0.03077 0.230469,0.04297 z m -0.08789,-0.199219 c -0.01671,-0.0029 -0.03391,-0.0062 -0.05078,-0.0078 -0.0013,-1.29e-4 -0.0025,1.87e-4 -0.0039,0 0.0015,-0.02408 0.0039,-0.04809 0.0039,-0.07227 0.02761,-0.01175 0.05666,-0.02094 0.08203,-0.03906 0.0027,-0.0019 0.005,-0.0041 0.0078,-0.0059 0.01243,7.1e-4 0.0249,0.0025 0.03711,0.002 v 0.002 c 0.0015,0.0044 0.0082,0.0072 0.0098,0.01172 6.8e-4,0.002 -0.0039,-7.65e-4 -0.0059,-0.002 l 0.0078,0.01758 c -0.06763,0.01418 -0.09736,0.05197 -0.08789,0.09375 z M 4.521488,9.5 c 0.0076,-0.0025 0.01389,-0.01498 0.02148,-0.01953 0.09567,-0.01829 0.123156,-0.07785 0.09961,-0.125 0.0044,-0.0073 0.0081,-0.01463 0.01367,-0.02148 0.0053,-0.0066 0.0094,-0.01393 0.01563,-0.01953 0.01083,-0.0097 0.03176,-0.01322 0.03516,-0.02734 0.01227,-0.05096 0.02428,-0.10589 0.0098,-0.15625 -0.0093,-0.03223 -0.10481,-0.02329 -0.128906,-0.02539 -0.08491,-0.0024 -0.166303,-0.0053 -0.246094,0.0293 -0.01543,0.01534 -0.03488,0.02876 -0.04687,0.04687 -0.02976,0.04503 -0.03485,0.160004 -0.01758,0.208984 0.008,0.02255 0.02313,0.04184 0.03516,0.0625 -0.01916,-0.03399 0.0035,0.0095 0.05859,0.04102 0.0139,0.0079 0.04719,0.0011 0.07422,-0.002 0.0014,-1.61e-4 0.0025,1.59e-4 0.0039,0 0.02034,0.01166 0.04574,0.01666 0.07227,0.0078 z M 4.412113,9.314453 c -0.0036,2.49e-4 -0.01254,0.0015 -0.01172,-0.002 8.24e-4,-0.0035 0.0084,-0.0015 0.01172,0 0.0013,5.84e-4 0.0027,0.0012 0.0039,0.002 -0.0013,9.9e-5 -0.0026,-8.8e-5 -0.0039,0 z m 0.03906,-0.0039 c 8.1e-4,-0.0056 0.0014,-0.0094 0.0019,-0.01758 0.0029,-0.0013 0.0051,-0.0014 0.0078,-0.002 0.0031,-6.19e-4 0.0066,4.5e-4 0.0098,0 -0.0028,0.0066 -0.0085,0.01139 -0.01172,0.01758 -0.0027,3.78e-4 -0.0051,0.0016 -0.0078,0.002 z m 0.0059,-0.03906 c 4.3e-4,-0.0068 0.0015,-0.01557 0.0019,-0.01758 9.17e-4,-0.0039 9.12e-4,0.0078 0,0.01172 -4.79e-4,0.0021 -0.0011,0.0039 -0.0019,0.0059 z" />
  </g>
</svg>
